<svg id="Layer_1" data-name="Layer 1" xmlns="http://www.w3.org/2000/svg" viewBox="0 0 446.82 70.81"><defs><style>.cls-1{fill:#fff;}</style></defs><title>logotypewhite</title><path class="cls-1" d="M221.26,126.76c0-20.34,12.74-35.45,32.8-35.45s32.69,15.11,32.69,35.45-12.64,35.36-32.69,35.36-32.8-15-32.8-35.36m51.43,0c0-13.59-6.09-24.14-18.54-24.14s-18.82,10.55-18.82,24.14,6.37,24,18.82,24,18.54-10.55,18.54-24m25.85,33.84h13.59V125.52c0-4.75-.38-11.88-.38-11.88h.19s2.66,5.8,4.85,9.41L340,160.6h13.31v-68H339.7v35.64c0,4.75.38,11.79.38,11.79h-.2s-2.56-5.8-4.75-9.51L312.51,92.64h-14Zm70.43,0h50.28V149.1h-36.5V130.75H414.5V119.44H382.75V104.23H419V92.64H369Zm63.58-68H462.4c7.89,0,13.78,2.28,17.77,6.37a21.71,21.71,0,0,1,6.09,15.49c0,12.83-8.46,21.48-22.72,21.48H446.81V160.6H432.55Zm14.26,32.12h14.26c7.22,0,11-4,11-10.17,0-6.36-4-10-10.83-10H446.81Zm49.62,35.84h45.71V149.1H510.21V92.64H496.43Zm53-21.86c0,14.73,9.22,23,26.81,23,17.39,0,26.33-8.46,26.33-23V92.64H588.81v45.91c0,7-4.08,12.16-12.83,12.16-9.22,0-12.74-4.94-12.74-12V92.64H549.46Zm62.83.85c.47,14.35,10.93,22.53,29.37,22.53,15.3,0,26.42-7.7,26.42-21.48,0-14.64-11.4-18-25.38-21-10.07-2.19-14.82-3.8-14.82-9.31,0-4.85,4.84-8,12.26-8,7,0,12.35,3.42,13.11,10.27h13.22c-1.05-13.69-10.93-21.2-26.24-21.2-15.11,0-26,6.94-26,20.34,0,14.16,11.12,17.4,23.29,20.15,10.36,2.38,16.82,3.71,16.82,10.36,0,6.28-6.18,8.75-13.21,8.75-9.7,0-14.35-3.23-15.31-11.41Z" transform="translate(-221.26 -91.31)"/></svg>