<svg id="Layer_1" data-name="Layer 1" xmlns="http://www.w3.org/2000/svg" viewBox="0 0 1920 800"><defs><style>.cls-1{fill:#231f20;}</style></defs><title>op</title><path class="cls-1" d="M698.83,226h21.35l73.26,111.69c5.4,8.31,11.69,20.67,11.69,20.67h.45V226h18.88V386.63H803.78L730.07,274.71c-5.17-7.86-11.91-20-11.91-20h-.45V386.63H698.83Z"/><path class="cls-1" d="M839.73,328.65c0-33.71,22-61.13,55.06-61.13,34.83,0,53.48,27,53.48,65.4H858.38c1.35,23.59,14.16,41.57,37.53,41.57,16.86,0,28.09-8.09,32.14-23.82H945.8c-5.39,24.94-23.59,39.1-49.89,39.1-35.51,0-56.18-27.41-56.18-61.12m19.1-9.44h69.89c-1.12-23.15-13-37.31-33.93-37.31-21.58,0-33.26,16.18-36,37.31"/><path class="cls-1" d="M946.25,270.44H965.8l24,73.71c3.38,10.34,7.65,24.5,7.65,24.5h.44s4.27-14.38,7.65-24.5l24.49-73.71H1049l-41.8,116.19H986.92Z"/><path class="cls-1" d="M1047.38,328.65c0-33.71,22-61.13,55-61.13,34.84,0,53.49,27,53.49,65.4H1066c1.35,23.59,14.16,41.57,37.53,41.57,16.85,0,28.09-8.09,32.13-23.82h17.76c-5.4,24.94-23.6,39.1-49.89,39.1-35.51,0-56.18-27.41-56.18-61.12m19.1-9.44h69.89c-1.13-23.15-13-37.31-33.94-37.31-21.57,0-33.26,16.18-36,37.31"/><path class="cls-1" d="M1188.51,289.77h.45c7-11.24,19.1-20.68,34.61-20.68a17.51,17.51,0,0,1,7.42,1.35V288h-.68a22,22,0,0,0-8.09-1.12c-18,0-33.71,13.48-33.71,35.28v64.5h-18.2V270.44h18.2Z"/><path class="cls-1" d="M689,516.52h19.78c2.7,27.2,19.33,41.35,49.66,41.35,22.25,0,38.21-10.11,38.21-30.11,0-22-19.33-27.19-48.09-33.48C720.25,488,696,479.89,696,449.56c0-26.52,22-42.48,54.61-42.48,40.22,0,56.85,20.45,60.9,50.12h-19.1c-2.92-22.93-17.76-34.39-41.35-34.39-21.8,0-36.18,9.22-36.18,25.85,0,18.2,18,23.59,42,28.31,31.24,6.29,59.78,13.94,59.78,50.12,0,30.11-24.5,47-59.1,47-45.17,0-66.75-25.17-68.55-57.53"/><path class="cls-1" d="M829.47,512.93c0-33.71,22-61.13,55-61.13,34.84,0,53.49,27,53.49,65.4H848.12c1.35,23.59,14.16,41.57,37.53,41.57,16.85,0,28.09-8.09,32.13-23.82h17.76c-5.4,24.95-23.6,39.1-49.89,39.1-35.51,0-56.18-27.41-56.18-61.12m19.1-9.44h69.89c-1.12-23.15-13-37.31-33.94-37.31-21.57,0-33.26,16.19-35.95,37.31"/><path class="cls-1" d="M1057.78,469.56V454.72h-22.47V418.09H1017.1v36.63H977.78V418.09h-18.2v36.63H942.72v14.84h16.86v79.55c0,16.4,10.78,22.47,25.61,22.47A70.86,70.86,0,0,0,999.8,570V554.28h-.67a34.79,34.79,0,0,1-9.67,1.57c-7.41,0-11.68-2.7-11.68-10.79v-75.5h39.32v79.55c0,16.4,10.79,22.47,25.62,22.47a70.86,70.86,0,0,0,14.61-1.57V554.28h-.67a34.79,34.79,0,0,1-9.67,1.57c-7.41,0-11.68-2.7-11.68-10.79v-75.5Z"/><rect class="cls-1" x="1075.08" y="410.23" width="18.2" height="160.68"/><path class="cls-1" d="M1109.92,512.93c0-33.71,22-61.13,55-61.13,34.84,0,53.49,27,53.49,65.4h-89.89c1.35,23.59,14.16,41.57,37.53,41.57,16.85,0,28.09-8.09,32.13-23.82H1216c-5.4,24.95-23.6,39.1-49.89,39.1-35.51,0-56.18-27.41-56.18-61.12m19.1-9.44h69.89c-1.13-23.15-13-37.31-33.94-37.31-21.57,0-33.26,16.19-36,37.31"/></svg>