<svg id="Layer_1" data-name="Layer 1" xmlns="http://www.w3.org/2000/svg" viewBox="0 0 1920 800"><defs><style>.cls-1{fill:#010101;}</style></defs><title>op</title><path class="cls-1" d="M576.13,400.08c0-34.95,21.89-60.92,56.34-60.92s56.19,26,56.19,60.92-21.72,60.76-56.19,60.76S576.13,435,576.13,400.08m88.36,0c0-23.36-10.46-41.48-31.85-41.48s-32.34,18.12-32.34,41.48c0,23.19,10.94,41.32,32.34,41.32s31.85-18.13,31.85-41.32m44.42,58.14h23.35V398c0-8.17-.65-20.42-.65-20.42h.32s4.58,10,8.33,16.17l39.85,64.51H803V341.45H779.62V402.7c0,8.16.66,20.24.66,20.24H780s-4.41-10-8.17-16.33l-38.87-65.16h-24Zm121,0h86.4V438.46H853.6V406.94h54.55V387.5H853.6V361.37h62.23V341.45H829.92ZM939.18,341.45h51.28c13.55,0,23.68,3.92,30.54,10.94A37.39,37.39,0,0,1,1031.45,379c0,22.05-14.53,36.91-39,36.91H963.68v42.3h-24.5Zm24.5,55.2h24.49c12.42,0,19-6.86,19-17.47,0-10.95-6.86-17.15-18.62-17.15H963.68Zm85.24,61.57h78.56V438.46H1072.6v-97h-23.68Zm91.13-37.56c0,25.31,15.84,39.53,46.06,39.53,29.89,0,45.24-14.54,45.24-39.53V341.45h-23.68v78.88c0,12.09-7,20.91-22.05,20.91-15.85,0-21.89-8.5-21.89-20.58V341.45h-23.68Zm108,1.47c.82,24.66,18.78,38.71,50.47,38.71,26.29,0,45.4-13.23,45.4-36.91,0-25.16-19.59-30.87-43.61-36.1-17.31-3.76-25.47-6.53-25.47-16,0-8.33,8.32-13.72,21.06-13.72,12.09,0,21.24,5.87,22.54,17.64h22.7c-1.79-23.52-18.78-36.43-45.07-36.43-26,0-44.75,11.93-44.75,35,0,24.33,19.11,29.88,40,34.62,17.8,4.08,28.91,6.37,28.91,17.8,0,10.78-10.62,15-22.7,15-16.66,0-24.66-5.56-26.3-19.6Z"/></svg>