<svg id="Layer_1" data-name="Layer 1" xmlns="http://www.w3.org/2000/svg" viewBox="0 0 1920 800"><defs><style>.cls-1{fill:#010101;}</style></defs><title>op</title><path class="cls-1" d="M707.22,399.68c0-34.95,21.89-60.92,56.35-60.92s56.18,26,56.18,60.92S798,460.44,763.57,460.44s-56.35-25.81-56.35-60.76m88.36,0c0-23.36-10.45-41.48-31.85-41.48s-32.33,18.12-32.33,41.48c0,23.19,10.94,41.32,32.33,41.32s31.85-18.13,31.85-41.32M840,457.82h23.36V397.56c0-8.17-.66-20.42-.66-20.42H863s4.57,10,8.33,16.17l39.85,64.51h22.86V341.05H910.72V402.3c0,8.16.65,20.25.65,20.25H911s-4.4-10-8.16-16.33L864,341.05H840Zm121,0h86.4V438.06H984.7V406.54h54.55V387.1H984.7V361h62.22V341.05H961Zm109.26-116.77h51.29c13.55,0,23.67,3.92,30.54,10.94a37.39,37.39,0,0,1,10.45,26.62c0,22.05-14.54,36.91-39,36.91h-28.75v42.3h-24.5Zm24.5,55.2h24.5c12.41,0,18.94-6.86,18.94-17.47,0-10.95-6.86-17.15-18.61-17.15h-24.83ZM1180,457.82h78.55V438.06H1203.7v-97H1180Zm91.12-37.56c0,25.31,15.85,39.53,46.06,39.53,29.89,0,45.24-14.54,45.24-39.53V341.05h-23.68v78.89c0,12.08-7,20.9-22,20.9-15.84,0-21.88-8.5-21.88-20.58V341.05h-23.69Zm108,1.47c.81,24.66,18.78,38.71,50.46,38.71,26.3,0,45.4-13.23,45.4-36.91,0-25.16-19.59-30.87-43.6-36.1-17.31-3.75-25.48-6.53-25.48-16,0-8.33,8.33-13.72,21.07-13.72,12.08,0,21.23,5.87,22.54,17.64h22.7c-1.8-23.52-18.78-36.42-45.08-36.42-26,0-44.75,11.92-44.75,34.95,0,24.33,19.11,29.88,40,34.62,17.8,4.08,28.9,6.37,28.9,17.8,0,10.78-10.61,15-22.7,15-16.66,0-24.66-5.55-26.29-19.6ZM445,299.88V499H644.16V385.3H622v91.58H467.16V322h91.57V299.88ZM622,263v36.87H585.16V322H622v36.87h22.13V322H681V299.87H644.16V263Zm-63.3,184.38V350.27H539.07c0,6.69-2.26,11.72-5.67,14.71s-9,4.34-15.23,4.34h-2.46v16h20.9v62.08Z"/></svg>